<svg xmlns="http://www.w3.org/2000/svg" width="26" height="26" viewBox="0 0 26 26">
    <defs>
        <style>
            .cls-1{fill:none}.cls-2{fill:#757575}
        </style>
    </defs>
    <g id="Group_3024" data-name="Group 3024" transform="translate(-1504 -97)">
        <path id="Path_12119" d="M0 0h26v26H0z" class="cls-1" data-name="Path 12119" transform="translate(1504 97)"/>
        <g id="Group_2762" data-name="Group 2762" transform="translate(1468.003 99.001)">
            <path id="Path_12125" d="M262.953 154.7a.554.554 0 0 0-.554.554v10.472a.554.554 0 0 0 1.108 0v-10.469a.554.554 0 0 0-.554-.557z" class="cls-2" data-name="Path 12125" transform="translate(-210.906 -146.738)"/>
            <path id="Path_12126" d="M144.953 154.7a.554.554 0 0 0-.554.554v10.472a.554.554 0 0 0 1.108 0v-10.469a.554.554 0 0 0-.554-.557z" class="cls-2" data-name="Path 12126" transform="translate(-99.005 -146.738)"/>
            <path id="Path_12127" d="M41.471 6.548v12.694a2.831 2.831 0 0 0 .761 1.96 2.565 2.565 0 0 0 1.854.8h9.82a2.564 2.564 0 0 0 1.854-.8 2.831 2.831 0 0 0 .761-1.96V6.548a1.967 1.967 0 0 0-.509-3.87h-2.655v-.644a2.017 2.017 0 0 0-.6-1.444A2.047 2.047 0 0 0 51.3 0h-4.607a2.047 2.047 0 0 0-1.457.59 2.017 2.017 0 0 0-.6 1.444v.644H41.98a1.967 1.967 0 0 0-.509 3.87zm12.436 14.42h-9.82a1.637 1.637 0 0 1-1.578-1.726V6.594h12.976v12.648a1.637 1.637 0 0 1-1.578 1.726zM45.676 2.034a.988.988 0 0 1 .295-.716 1 1 0 0 1 .723-.289H51.3a1 1 0 0 1 .723.289.988.988 0 0 1 .295.716v.644h-6.642zm-3.7 1.674h14.039a.927.927 0 1 1 0 1.855H41.98a.927.927 0 1 1 0-1.855z" class="cls-2" data-name="Path 12127"/>
            <path id="Path_12128" d="M203.953 154.7a.554.554 0 0 0-.554.554v10.472a.554.554 0 1 0 1.108 0v-10.469a.554.554 0 0 0-.554-.557z" class="cls-2" data-name="Path 12128" transform="translate(-154.956 -146.738)"/>
        </g>
    </g>
</svg>
